<svg width="33" height="33" viewBox="0 0 33 33" fill="none" xmlns="http://www.w3.org/2000/svg">
<ellipse cx="21.9542" cy="11.3299" rx="1.0873" ry="1.08512" fill="white"/>
<ellipse cx="11.0811" cy="11.3299" rx="1.08731" ry="1.08512" fill="white"/>
<ellipse cx="11.0811" cy="24.3512" rx="1.08731" ry="1.08512" fill="white"/>
<ellipse cx="16.5177" cy="26.5215" rx="1.0873" ry="1.08512" fill="white"/>
<ellipse cx="7.81924" cy="17.7748" rx="1.08731" ry="1.08512" fill="white"/>
<ellipse cx="25.2161" cy="17.7748" rx="1.0873" ry="1.08512" fill="white"/>
<ellipse cx="21.9542" cy="24.3512" rx="1.0873" ry="1.08512" fill="white"/>
<mask id="path-8-inside-1_130_940" fill="white">
<path fill-rule="evenodd" clip-rule="evenodd" d="M21.6715 29.0581C22.0798 28.8622 22.5726 28.9298 22.8885 29.2542L24.7144 31.1292C24.9819 31.4039 25.4234 31.4039 25.691 31.1292C25.9487 30.8645 25.9487 30.4427 25.691 30.1781L24.3343 28.7849C23.9084 28.3475 23.9728 27.6356 24.432 27.2333C27.0738 24.9195 28.75 21.4688 28.75 17.6145C28.75 10.6477 23.2735 5 16.5178 5C9.76218 5 4.28564 10.6477 4.28564 17.6145C4.28564 21.4288 5.92729 24.8477 8.52166 27.1608C8.97438 27.5644 9.03489 28.2708 8.61173 28.7054L7.17757 30.1781C6.91985 30.4427 6.91984 30.8645 7.17756 31.1291C7.44513 31.4039 7.88664 31.4039 8.15421 31.1292L10.0338 29.199C10.3525 28.8718 10.8504 28.8061 11.2602 29.0076C12.853 29.7907 14.6358 30.229 16.5178 30.229C18.359 30.229 20.1053 29.8095 21.6715 29.0581ZM16.5178 28.8274C22.5228 28.8274 27.3909 23.8072 27.3909 17.6145C27.3909 11.4218 22.5228 6.40161 16.5178 6.40161C10.5128 6.40161 5.64478 11.4218 5.64478 17.6145C5.64478 23.8072 10.5128 28.8274 16.5178 28.8274ZM15.7583 17.298V13.5001V9.94092C15.7583 9.50942 16.1081 9.15963 16.5395 9.15963C16.971 9.15963 17.3208 9.50942 17.3208 9.94092V13.5001V17.298V17.8406V18.1226C17.3208 18.5661 16.9613 18.9257 16.5177 18.9257C16.0983 18.9257 15.7583 18.5857 15.7583 18.1663V17.8406V17.298Z"/>
</mask>
<path fill-rule="evenodd" clip-rule="evenodd" d="M21.6715 29.0581C22.0798 28.8622 22.5726 28.9298 22.8885 29.2542L24.7144 31.1292C24.9819 31.4039 25.4234 31.4039 25.691 31.1292C25.9487 30.8645 25.9487 30.4427 25.691 30.1781L24.3343 28.7849C23.9084 28.3475 23.9728 27.6356 24.432 27.2333C27.0738 24.9195 28.75 21.4688 28.75 17.6145C28.75 10.6477 23.2735 5 16.5178 5C9.76218 5 4.28564 10.6477 4.28564 17.6145C4.28564 21.4288 5.92729 24.8477 8.52166 27.1608C8.97438 27.5644 9.03489 28.2708 8.61173 28.7054L7.17757 30.1781C6.91985 30.4427 6.91984 30.8645 7.17756 31.1291C7.44513 31.4039 7.88664 31.4039 8.15421 31.1292L10.0338 29.199C10.3525 28.8718 10.8504 28.8061 11.2602 29.0076C12.853 29.7907 14.6358 30.229 16.5178 30.229C18.359 30.229 20.1053 29.8095 21.6715 29.0581ZM16.5178 28.8274C22.5228 28.8274 27.3909 23.8072 27.3909 17.6145C27.3909 11.4218 22.5228 6.40161 16.5178 6.40161C10.5128 6.40161 5.64478 11.4218 5.64478 17.6145C5.64478 23.8072 10.5128 28.8274 16.5178 28.8274ZM15.7583 17.298V13.5001V9.94092C15.7583 9.50942 16.1081 9.15963 16.5395 9.15963C16.971 9.15963 17.3208 9.50942 17.3208 9.94092V13.5001V17.298V17.8406V18.1226C17.3208 18.5661 16.9613 18.9257 16.5177 18.9257C16.0983 18.9257 15.7583 18.5857 15.7583 18.1663V17.8406V17.298Z" fill="white"/>
<path d="M10.0338 29.199L12.8995 31.9896L10.0338 29.199ZM11.2602 29.0076L13.025 25.418L11.2602 29.0076ZM8.15421 31.1292L5.28851 28.3385L8.15421 31.1292ZM7.17757 30.1781L10.0432 32.9687L7.17757 30.1781ZM24.3343 28.7849L21.4686 31.5756L24.3343 28.7849ZM24.432 27.2333L21.7965 24.2243L24.432 27.2333ZM8.52166 27.1608L5.85971 30.1464L8.52166 27.1608ZM8.61173 28.7054L5.74605 25.9147L8.61173 28.7054ZM25.691 30.1781L28.5567 27.3874L25.691 30.1781ZM24.7144 31.1292L27.5801 28.3385L24.7144 31.1292ZM22.8885 29.2542L20.0228 32.0449L22.8885 29.2542ZM21.6715 29.0581L19.9413 25.4516L21.6715 29.0581ZM20.0228 32.0449L21.8487 33.9198L27.5801 28.3385L25.7542 26.4636L20.0228 32.0449ZM28.5567 27.3874L27.2 25.9942L21.4686 31.5756L22.8253 32.9688L28.5567 27.3874ZM27.0675 30.2423C30.5575 27.1855 32.75 22.6466 32.75 17.6145H24.75C24.75 20.2911 23.5901 22.6534 21.7965 24.2243L27.0675 30.2423ZM32.75 17.6145C32.75 8.5555 25.5978 1 16.5178 1V9C20.9492 9 24.75 12.7399 24.75 17.6145H32.75ZM16.5178 1C7.43789 1 0.285645 8.5555 0.285645 17.6145H8.28564C8.28564 12.7399 12.0865 9 16.5178 9V1ZM0.285645 17.6145C0.285645 22.5943 2.43296 27.0912 5.85971 30.1464L11.1836 24.1752C9.42162 22.6042 8.28564 20.2633 8.28564 17.6145H0.285645ZM5.74605 25.9147L4.31188 27.3874L10.0432 32.9687L11.4774 31.496L5.74605 25.9147ZM11.0199 33.9198L12.8995 31.9896L7.16814 26.4083L5.28851 28.3385L11.0199 33.9198ZM9.49538 32.5972C11.6222 33.6429 14.0073 34.229 16.5178 34.229V26.229C15.2643 26.229 14.0837 25.9385 13.025 25.418L9.49538 32.5972ZM16.5178 34.229C18.9736 34.229 21.3098 33.6681 23.4017 32.6645L19.9413 25.4516C18.9008 25.9508 17.7444 26.229 16.5178 26.229V34.229ZM16.5178 32.8274C24.8471 32.8274 31.3909 25.8994 31.3909 17.6145H23.3909C23.3909 21.715 20.1985 24.8274 16.5178 24.8274V32.8274ZM31.3909 17.6145C31.3909 9.32959 24.8471 2.40161 16.5178 2.40161V10.4016C20.1985 10.4016 23.3909 13.514 23.3909 17.6145H31.3909ZM16.5178 2.40161C8.18851 2.40161 1.64478 9.32959 1.64478 17.6145H9.64478C9.64478 13.514 12.8371 10.4016 16.5178 10.4016V2.40161ZM1.64478 17.6145C1.64478 25.8994 8.18851 32.8274 16.5178 32.8274V24.8274C12.8371 24.8274 9.64478 21.715 9.64478 17.6145H1.64478ZM13.3208 17.298V17.8406H21.3208V17.298H13.3208ZM13.3208 17.8406V18.1226H21.3208V17.8406H13.3208ZM19.7583 18.1663V17.8406H11.7583V18.1663H19.7583ZM19.7583 17.8406V17.298H11.7583V17.8406H19.7583ZM19.7583 17.298V13.5001H11.7583V17.298H19.7583ZM19.7583 13.5001V9.94092H11.7583V13.5001H19.7583ZM13.3208 9.94092V13.5001H21.3208V9.94092H13.3208ZM13.3208 13.5001V17.298H21.3208V13.5001H13.3208ZM16.5395 5.15963C13.8989 5.15963 11.7583 7.30029 11.7583 9.94092H19.7583C19.7583 11.7186 18.3172 13.1596 16.5395 13.1596V5.15963ZM13.3208 18.1226C13.3208 16.357 14.7521 14.9257 16.5177 14.9257V22.9257C19.1704 22.9257 21.3208 20.7753 21.3208 18.1226H13.3208ZM12.8995 31.9896C11.9069 33.009 10.5021 33.0922 9.49538 32.5972L13.025 25.418C11.1987 24.52 8.79805 24.7346 7.16814 26.4083L12.8995 31.9896ZM4.31185 33.9198C6.14966 35.807 9.1821 35.807 11.0199 33.9198L5.28851 28.3385C6.59118 27.0008 8.74061 27.0008 10.0433 28.3385L4.31185 33.9198ZM4.31188 27.3874C2.54175 29.2051 2.54174 32.1021 4.31185 33.9198L10.0433 28.3385C11.298 29.6269 11.2979 31.6803 10.0432 32.9687L4.31188 27.3874ZM27.2 25.9942C28.5427 27.3731 28.144 29.2994 27.0675 30.2423L21.7965 24.2243C19.8015 25.9717 19.274 29.3219 21.4686 31.5756L27.2 25.9942ZM16.5395 13.1596C14.7619 13.1596 13.3208 11.7186 13.3208 9.94092H21.3208C21.3208 7.30028 19.1802 5.15963 16.5395 5.15963V13.1596ZM5.85971 30.1464C4.7963 29.1983 4.41263 27.2839 5.74605 25.9147L11.4774 31.496C13.6571 29.2577 13.1525 25.9306 11.1836 24.1752L5.85971 30.1464ZM28.5567 33.9198C30.3268 32.1021 30.3268 29.2051 28.5567 27.3874L22.8253 32.9688C21.5706 31.6803 21.5706 29.6269 22.8253 28.3385L28.5567 33.9198ZM21.8487 33.9198C23.6865 35.807 26.7189 35.807 28.5567 33.9198L22.8253 28.3385C24.128 27.0008 26.2774 27.0008 27.5801 28.3385L21.8487 33.9198ZM16.5177 14.9257C18.3074 14.9257 19.7583 16.3765 19.7583 18.1663H11.7583C11.7583 20.7948 13.8891 22.9257 16.5177 22.9257V14.9257ZM25.7542 26.4636C24.1381 24.804 21.7617 24.5783 19.9413 25.4516L23.4017 32.6645C22.398 33.1461 21.007 33.0555 20.0228 32.0449L25.7542 26.4636Z" fill="white" mask="url(#path-8-inside-1_130_940)"/>
<rect x="15.75" y="6" width="4" height="1.5" transform="rotate(-90 15.75 6)" fill="white"/>
<rect x="8.75" y="2" width="15.5" height="1.5" rx="0.75" fill="white"/>
</svg>
